<svg width="710" height="590" xmlns="http://www.w3.org/2000/svg" version="1.1" title="icon">

	<defs><marker id="arrow" viewBox="0 -5 10 10" refX="5" refY="0" markerWidth="6" markerHeight="6" orient="auto" fill="none" stroke="black" opacity="0.45"><path d="M0,-1L4,0L0,1"></path>
		</marker><linearGradient id="nxny" x1="0%" x2="100%" y1="0%" y2="100%"><stop offset="0%" style="stop-opacity: 0; stop-color: black;"></stop><stop offset="100%" style="stop-opacity: 1; stop-color: black;"></stop></linearGradient><linearGradient id="nxpy" x1="0%" x2="100%" y1="100%" y2="0%"><stop offset="0%" style="stop-opacity: 0; stop-color: black;"></stop><stop offset="100%" style="stop-opacity: 1; stop-color: black;"></stop></linearGradient><linearGradient id="pxny" x1="100%" x2="0%" y1="0%" y2="100%"><stop offset="0%" style="stop-opacity: 0; stop-color: black;"></stop><stop offset="100%" style="stop-opacity: 1; stop-color: black;"></stop></linearGradient><linearGradient id="pxpy" x1="100%" x2="0%" y1="100%" y2="0%"><stop offset="0%" style="stop-opacity: 0; stop-color: black;"></stop><stop offset="100%" style="stop-opacity: 1; stop-color: black;"></stop></linearGradient><linearGradient id="down" gradientUnits="userSpaceOnUse" x1="0%" x2="0%" y1="100%" y2="0%"><stop offset="0%" style="stop-opacity: 0; stop-color: black;"></stop><stop offset="100%" style="stop-opacity: 1; stop-color: black;"></stop></linearGradient><linearGradient id="up" gradientUnits="userSpaceOnUse" x1="0%" x2="0%" y1="0%" y2="100%"><stop offset="0%" style="stop-opacity: 0; stop-color: black;"></stop><stop offset="100%" style="stop-opacity: 1; stop-color: black;"></stop></linearGradient><linearGradient id="right" gradientUnits="userSpaceOnUse" x1="0%" x2="100%" y1="0%" y2="0%"><stop offset="0%" style="stop-opacity: 0; stop-color: black;"></stop><stop offset="100%" style="stop-opacity: 1; stop-color: black;"></stop></linearGradient><linearGradient id="left" gradientUnits="userSpaceOnUse" x1="100%" x2="0%" y1="0%" y2="0%"><stop offset="0%" style="stop-opacity: 0; stop-color: black;"></stop><stop offset="100%" style="stop-opacity: 1; stop-color: black;"></stop></linearGradient></defs>
	<g transform="translate(50,50)">
	<g>
		<path class="link" generation="0" stroke-width="0" d="M104.02758745737705,157.53463117404772Q152.21003397661823,177.03187512697124 200.39248049585942,196.52911907989477" style="fill:none; opacity:0.8; stroke: url('#pxpy');"></path>
		<path class="link" generation="0" stroke-width="0" d="M268.1192988621508,193.2355762566849Q234.25588967900512,194.88234766828984 200.39248049585942,196.52911907989477" style="fill:none; opacity:0.8; stroke: url('#nxpy');"></path>
		<path class="link" generation="0" stroke-width="0" d="M254.10180492011298,135.51782486335475Q227.2471427079862,166.02347197162476 200.39248049585942,196.52911907989477" style="fill:none; opacity:0.8; stroke: url('#nxpy');"></path>
		<path class="link" generation="0" stroke-width="0" d="M254.10180492011298,135.51782486335475Q261.1105518911319,164.37670056001983 268.1192988621508,193.2355762566849" style="fill:none; opacity:0.8; stroke: url('#pxpy');"></path>
		<path class="link" generation="0" stroke-width="0" d="M95.68765259853113,207.43793622495863Q148.04006654719527,201.9835276524267 200.39248049585942,196.52911907989477" style="fill:none; opacity:0.8; stroke: url('#pxny');"></path>
		<path class="link" generation="0" stroke-width="0" d="M96.55485432331272,182.22059972340477Q148.47366740958608,189.37485940164976 200.39248049585942,196.52911907989477" style="fill:none; opacity:0.8; stroke: url('#pxpy');"></path>
		<path class="link" generation="0" stroke-width="0" d="M113.67726564718208,258.42982858282556Q157.03487307152074,227.47947383136017 200.39248049585942,196.52911907989477" style="fill:none; opacity:0.8; stroke: url('#pxny');"></path>
		<path class="link" generation="0" stroke-width="0" d="M138.72789512924518,114.21537441517714Q169.5601878125523,155.37224674753594 200.39248049585942,196.52911907989477" style="fill:none; opacity:0.8; stroke: url('#pxpy');"></path>
		<path class="link" generation="0" stroke-width="0" d="M100.34741446291079,233.0745774096228Q150.3699474793851,214.8018482447588 200.39248049585942,196.52911907989477" style="fill:none; opacity:0.8; stroke: url('#pxny');"></path>
		<path class="link" generation="0" stroke-width="0" d="M117.37295706210426,134.15833188399134Q158.88271877898183,165.34372548194307 200.39248049585942,196.52911907989477" style="fill:none; opacity:0.8; stroke: url('#pxpy');"></path>
		<path class="link" generation="0" stroke-width="0" d="M342.20370138013254,228.23957087670755Q271.298090937996,212.38434497830116 200.39248049585942,196.52911907989477" style="fill:none; opacity:0.8; stroke: url('#nxny');"></path>
		<path class="link" generation="0" stroke-width="0" d="M342.20370138013254,228.23957087670755Q305.16150012114167,210.73757356669623 268.1192988621508,193.2355762566849" style="fill:none; opacity:0.8; stroke: url('#nxny');"></path>
		<path class="link" generation="0" stroke-width="0" d="M342.20370138013254,228.23957087670755Q298.15275315012275,181.87869787003115 254.10180492011298,135.51782486335475" style="fill:none; opacity:0.8; stroke: url('#nxny');"></path>
		<path class="link" generation="0" stroke-width="0" d="M342.20370138013254,228.23957087670755Q293.001256211894,200.56399740144644 243.79881104365535,172.88842392618534" style="fill:none; opacity:0.8; stroke: url('#nxny');"></path>
		<path class="link" generation="0" stroke-width="0" d="M305.4343079701953,343.95729850121285Q323.8190046751639,286.0984346889602 342.20370138013254,228.23957087670755" style="fill:none; opacity:0.8; stroke: url('#pxny');"></path>
		<path class="link" generation="0" stroke-width="0" d="M294.93257050656376,135.2478566374488Q318.5681359433481,181.74371375707818 342.20370138013254,228.23957087670755" style="fill:none; opacity:0.8; stroke: url('#pxpy');"></path>
		<path class="link" generation="0" stroke-width="0" d="M249.30034752627625,296.0079617417093Q295.7520244532044,262.12376630920846 342.20370138013254,228.23957087670755" style="fill:none; opacity:0.8; stroke: url('#pxny');"></path>
		<path class="link" generation="0" stroke-width="0" d="M272.6472105938414,155.3814798469344Q307.425455986987,191.81052536182096 342.20370138013254,228.23957087670755" style="fill:none; opacity:0.8; stroke: url('#pxpy');"></path>
		<path class="link" generation="0" stroke-width="0" d="M454.2429016110375,461.9478909488613Q452.3484260915044,414.5190837994569 450.4539505719713,367.09027665005254" style="fill:none; opacity:0.8; stroke: url('#nxny');"></path>
		<path class="link" generation="0" stroke-width="0" d="M465.98216882201336,425.05699511936814Q458.2180596969923,396.07363588471037 450.4539505719713,367.09027665005254" style="fill:none; opacity:0.8; stroke: url('#nxny');"></path>
		<path class="link" generation="0" stroke-width="0" d="M465.98216882201336,425.05699511936814Q460.11253521652543,443.5024430341147 454.2429016110375,461.9478909488613" style="fill:none; opacity:0.8; stroke: url('#nxpy');"></path>
		<path class="link" generation="0" stroke-width="0" d="M369.47459108926114,426.2686744805246Q409.9642708306162,396.6794755652886 450.4539505719713,367.09027665005254" style="fill:none; opacity:0.8; stroke: url('#pxny');"></path>
		<path class="link" generation="0" stroke-width="0" d="M369.47459108926114,426.2686744805246Q411.8587463501493,444.10828271469296 454.2429016110375,461.9478909488613" style="fill:none; opacity:0.8; stroke: url('#pxpy');"></path>
		<path class="link" generation="0" stroke-width="0" d="M369.47459108926114,426.2686744805246Q417.72837995563725,425.6628347999464 465.98216882201336,425.05699511936814" style="fill:none; opacity:0.8; stroke: url('#pxny');"></path>
		<path class="link" generation="0" stroke-width="0" d="M416.49721678358037,424.0821656261048Q433.47558367777583,395.5862211380787 450.4539505719713,367.09027665005254" style="fill:none; opacity:0.8; stroke: url('#pxny');"></path>
		<path class="link" generation="0" stroke-width="0" d="M416.49721678358037,424.0821656261048Q435.37005919730893,443.01502828748306 454.2429016110375,461.9478909488613" style="fill:none; opacity:0.8; stroke: url('#pxpy');"></path>
		<path class="link" generation="0" stroke-width="0" d="M416.49721678358037,424.0821656261048Q441.23969280279687,424.5695803727365 465.98216882201336,425.05699511936814" style="fill:none; opacity:0.8; stroke: url('#pxpy');"></path>
		<path class="link" generation="0" stroke-width="0" d="M416.49721678358037,424.0821656261048Q392.98590393642075,425.1754200533147 369.47459108926114,426.2686744805246" style="fill:none; opacity:0.8; stroke: url('#nxpy');"></path>
		<path class="link" generation="0" stroke-width="0" d="M376.52034061394187,463.8290179437865Q413.4871455929566,415.4596472969195 450.4539505719713,367.09027665005254" style="fill:none; opacity:0.8; stroke: url('#pxny');"></path>
		<path class="link" generation="0" stroke-width="0" d="M376.52034061394187,463.8290179437865Q415.3816211124897,462.88845444632386 454.2429016110375,461.9478909488613" style="fill:none; opacity:0.8; stroke: url('#pxny');"></path>
		<path class="link" generation="0" stroke-width="0" d="M376.52034061394187,463.8290179437865Q421.25125471797764,444.44300653157734 465.98216882201336,425.05699511936814" style="fill:none; opacity:0.8; stroke: url('#pxny');"></path>
		<path class="link" generation="0" stroke-width="0" d="M376.52034061394187,463.8290179437865Q372.99746585160153,445.0488462121556 369.47459108926114,426.2686744805246" style="fill:none; opacity:0.8; stroke: url('#nxny');"></path>
		<path class="link" generation="0" stroke-width="0" d="M376.52034061394187,463.8290179437865Q396.50877869876115,443.9555917849457 416.49721678358037,424.0821656261048" style="fill:none; opacity:0.8; stroke: url('#pxny');"></path>
		<path class="link" generation="0" stroke-width="0" d="M415.57219219230933,476.61296804768455Q433.0130713821403,421.85162234886855 450.4539505719713,367.09027665005254" style="fill:none; opacity:0.8; stroke: url('#pxny');"></path>
		<path class="link" generation="0" stroke-width="0" d="M415.57219219230933,476.61296804768455Q434.9075469016734,469.28042949827295 454.2429016110375,461.9478909488613" style="fill:none; opacity:0.8; stroke: url('#pxny');"></path>
		<path class="link" generation="0" stroke-width="0" d="M415.57219219230933,476.61296804768455Q440.77718050716135,450.8349815835263 465.98216882201336,425.05699511936814" style="fill:none; opacity:0.8; stroke: url('#pxny');"></path>
		<path class="link" generation="0" stroke-width="0" d="M415.57219219230933,476.61296804768455Q392.52339164078523,451.44082126410456 369.47459108926114,426.2686744805246" style="fill:none; opacity:0.8; stroke: url('#nxny');"></path>
		<path class="link" generation="0" stroke-width="0" d="M415.57219219230933,476.61296804768455Q416.03470448794485,450.34756683689466 416.49721678358037,424.0821656261048" style="fill:none; opacity:0.8; stroke: url('#pxny');"></path>
		<path class="link" generation="0" stroke-width="0" d="M415.57219219230933,476.61296804768455Q396.0462664031256,470.2209929957355 376.52034061394187,463.8290179437865" style="fill:none; opacity:0.8; stroke: url('#nxny');"></path>
		<path class="link" generation="0" stroke-width="0" d="M388.32464965633903,354.4603967604426Q365.2641755182358,291.3499838185751 342.20370138013254,228.23957087670755" style="fill:none; opacity:0.8; stroke: url('#nxny');"></path>
		<path class="link" generation="0" stroke-width="0" d="M388.32464965633903,354.4603967604426Q346.87947881326716,349.20884763082773 305.4343079701953,343.95729850121285" style="fill:none; opacity:0.8; stroke: url('#nxny');"></path>
		<path class="link" generation="0" stroke-width="0" d="M388.32464965633903,354.4603967604426Q419.38930011415516,360.7753367052476 450.4539505719713,367.09027665005254" style="fill:none; opacity:0.8; stroke: url('#pxpy');"></path>
		<path class="link" generation="0" stroke-width="0" d="M388.32464965633903,354.4603967604426Q421.28377563368826,408.204143854652 454.2429016110375,461.9478909488613" style="fill:none; opacity:0.8; stroke: url('#pxpy');"></path>
		<path class="link" generation="0" stroke-width="0" d="M388.32464965633903,354.4603967604426Q427.1534092391762,389.75869593990535 465.98216882201336,425.05699511936814" style="fill:none; opacity:0.8; stroke: url('#pxpy');"></path>
		<path class="link" generation="0" stroke-width="0" d="M388.32464965633903,354.4603967604426Q378.8996203728001,390.3645356204836 369.47459108926114,426.2686744805246" style="fill:none; opacity:0.8; stroke: url('#nxpy');"></path>
		<path class="link" generation="0" stroke-width="0" d="M388.32464965633903,354.4603967604426Q402.4109332199597,389.2712811932737 416.49721678358037,424.0821656261048" style="fill:none; opacity:0.8; stroke: url('#pxpy');"></path>
		<path class="link" generation="0" stroke-width="0" d="M388.32464965633903,354.4603967604426Q382.4224951351405,409.14470735211455 376.52034061394187,463.8290179437865" style="fill:none; opacity:0.8; stroke: url('#nxpy');"></path>
		<path class="link" generation="0" stroke-width="0" d="M388.32464965633903,354.4603967604426Q401.9484209243242,415.5366824040636 415.57219219230933,476.61296804768455" style="fill:none; opacity:0.8; stroke: url('#pxpy');"></path>
		<path class="link" generation="0" stroke-width="0" d="M371.27239048001024,278.81745328050897Q356.7380459300714,253.52851207860826 342.20370138013254,228.23957087670755" style="fill:none; opacity:0.8; stroke: url('#nxny');"></path>
		<path class="link" generation="0" stroke-width="0" d="M371.27239048001024,278.81745328050897Q379.79852006817464,316.63892502047577 388.32464965633903,354.4603967604426" style="fill:none; opacity:0.8; stroke: url('#pxpy');"></path>
		<path class="link" generation="0" stroke-width="0" d="M438.3958342087218,255.21188856381252Q390.29976779442717,241.72572972026003 342.20370138013254,228.23957087670755" style="fill:none; opacity:0.8; stroke: url('#nxny');"></path>
		<path class="link" generation="0" stroke-width="0" d="M438.3958342087218,255.21188856381252Q413.3602419325304,304.8361426621276 388.32464965633903,354.4603967604426" style="fill:none; opacity:0.8; stroke: url('#nxpy');"></path>
		<path class="link" generation="0" stroke-width="0" d="M438.3958342087218,255.21188856381252Q404.834112344366,267.01467092216075 371.27239048001024,278.81745328050897" style="fill:none; opacity:0.8; stroke: url('#nxpy');"></path>
		<path class="link" generation="0" stroke-width="0" d="M422.47009576866105,304.7160800647908Q382.3368985743968,266.47782547074917 342.20370138013254,228.23957087670755" style="fill:none; opacity:0.8; stroke: url('#nxny');"></path>
		<path class="link" generation="0" stroke-width="0" d="M422.47009576866105,304.7160800647908Q436.4620231703162,335.90317835742167 450.4539505719713,367.09027665005254" style="fill:none; opacity:0.8; stroke: url('#pxpy');"></path>
		<path class="link" generation="0" stroke-width="0" d="M422.47009576866105,304.7160800647908Q396.87124312433565,291.76676667264985 371.27239048001024,278.81745328050897" style="fill:none; opacity:0.8; stroke: url('#nxny');"></path>
		<path class="link" generation="0" stroke-width="0" d="M422.47009576866105,304.7160800647908Q430.4329649886914,279.9639843143017 438.3958342087218,255.21188856381252" style="fill:none; opacity:0.8; stroke: url('#pxny');"></path>
		<path class="link" generation="0" stroke-width="0" d="M382.07638891908937,246.3154141580658Q362.14004514961096,237.2774925173867 342.20370138013254,228.23957087670755" style="fill:none; opacity:0.8; stroke: url('#nxny');"></path>
		<path class="link" generation="0" stroke-width="0" d="M382.07638891908937,246.3154141580658Q385.2005192877142,300.3879054592542 388.32464965633903,354.4603967604426" style="fill:none; opacity:0.8; stroke: url('#pxpy');"></path>
		<path class="link" generation="0" stroke-width="0" d="M382.07638891908937,246.3154141580658Q376.6743896995498,262.5664337192874 371.27239048001024,278.81745328050897" style="fill:none; opacity:0.8; stroke: url('#nxpy');"></path>
		<path class="link" generation="0" stroke-width="0" d="M382.07638891908937,246.3154141580658Q410.2361115639056,250.76365136093915 438.3958342087218,255.21188856381252" style="fill:none; opacity:0.8; stroke: url('#pxpy');"></path>
		<path class="link" generation="0" stroke-width="0" d="M382.07638891908937,246.3154141580658Q402.2732423438752,275.5157471114283 422.47009576866105,304.7160800647908" style="fill:none; opacity:0.8; stroke: url('#pxpy');"></path>
		<path class="link" generation="0" stroke-width="0" d="M280.8406351729221,276.966079880972Q311.5221682765273,252.60282537883978 342.20370138013254,228.23957087670755" style="fill:none; opacity:0.8; stroke: url('#pxny');"></path>
		<path class="link" generation="0" stroke-width="0" d="M280.8406351729221,276.966079880972Q331.4585120460057,261.6407470195189 382.07638891908937,246.3154141580658" style="fill:none; opacity:0.8; stroke: url('#pxny');"></path>
		<path class="link" generation="0" stroke-width="0" d="M312.0713627568152,302.8952807532703Q327.1375320684739,265.56742581498895 342.20370138013254,228.23957087670755" style="fill:none; opacity:0.8; stroke: url('#pxny');"></path>
		<path class="link" generation="0" stroke-width="0" d="M312.0713627568152,302.8952807532703Q350.19800620657713,328.67783875685643 388.32464965633903,354.4603967604426" style="fill:none; opacity:0.8; stroke: url('#pxpy');"></path>
		<path class="link" generation="0" stroke-width="0" d="M312.0713627568152,302.8952807532703Q347.0738758379523,274.60534745566804 382.07638891908937,246.3154141580658" style="fill:none; opacity:0.8; stroke: url('#pxny');"></path>
		<path class="link" generation="0" stroke-width="0" d="M313.63172837669464,421.6490949905517Q350.9781890165168,388.05474587549713 388.32464965633903,354.4603967604426" style="fill:none; opacity:0.8; stroke: url('#pxny');"></path>
		<path class="link" generation="0" stroke-width="0" d="M322.6105543754248,325.67001319455966Q332.40712787777863,276.9547920356336 342.20370138013254,228.23957087670755" style="fill:none; opacity:0.8; stroke: url('#pxny');"></path>
		<path class="link" generation="0" stroke-width="0" d="M322.6105543754248,325.67001319455966Q355.4676020158819,340.06520497750114 388.32464965633903,354.4603967604426" style="fill:none; opacity:0.8; stroke: url('#pxpy');"></path>
		<path class="link" generation="0" stroke-width="0" d="M322.6105543754248,325.67001319455966Q352.34347164725705,285.99271367631275 382.07638891908937,246.3154141580658" style="fill:none; opacity:0.8; stroke: url('#pxny');"></path>
		<path class="link" generation="0" stroke-width="0" d="M322.6105543754248,325.67001319455966Q318.1211413760597,373.6595540925557 313.63172837669464,421.6490949905517" style="fill:none; opacity:0.8; stroke: url('#nxpy');"></path>
		<path class="link" generation="0" stroke-width="0" d="M230.9291799131637,239.28122973527536Q286.5664406466481,233.76040030599145 342.20370138013254,228.23957087670755" style="fill:none; opacity:0.8; stroke: url('#pxny');"></path>
		<path class="link" generation="0" stroke-width="0" d="M297.8973859535267,290.35391503623686Q320.05054366682964,259.2967429564722 342.20370138013254,228.23957087670755" style="fill:none; opacity:0.8; stroke: url('#pxny');"></path>
		<path class="link" generation="0" stroke-width="0" d="M297.8973859535267,290.35391503623686Q339.98688743630805,268.33466459715135 382.07638891908937,246.3154141580658" style="fill:none; opacity:0.8; stroke: url('#pxny');"></path>
		<path class="link" generation="0" stroke-width="0" d="M226.43933996849134,313.3365002514121Q284.32152067431196,270.7880355640598 342.20370138013254,228.23957087670755" style="fill:none; opacity:0.8; stroke: url('#pxny');"></path>
		<path class="link" generation="0" stroke-width="0" d="M226.43933996849134,313.3365002514121Q269.25535136265324,308.1158905023412 312.0713627568152,302.8952807532703" style="fill:none; opacity:0.8; stroke: url('#pxny');"></path>
		<path class="link" generation="0" stroke-width="0" d="M257.715916581785,270.5217224773251Q299.95980898095877,249.38064667701633 342.20370138013254,228.23957087670755" style="fill:none; opacity:0.8; stroke: url('#pxny');"></path>
		<path class="link" generation="0" stroke-width="0" d="M257.715916581785,270.5217224773251Q284.8936396693001,286.7085016152977 312.0713627568152,302.8952807532703" style="fill:none; opacity:0.8; stroke: url('#pxpy');"></path>
		<path class="link" generation="0" stroke-width="0" d="M257.715916581785,270.5217224773251Q242.07762827513818,291.9291113643686 226.43933996849134,313.3365002514121" style="fill:none; opacity:0.8; stroke: url('#nxpy');"></path>
		<path class="link" generation="0" stroke-width="0" d="M213.5701176676885,264.7761160200613Q277.8869095239105,246.50784344838442 342.20370138013254,228.23957087670755" style="fill:none; opacity:0.8; stroke: url('#pxny');"></path>
		<path class="link" generation="0" stroke-width="0" d="M213.5701176676885,264.7761160200613Q262.82074021225185,283.8356983866658 312.0713627568152,302.8952807532703" style="fill:none; opacity:0.8; stroke: url('#pxpy');"></path>
		<path class="link" generation="0" stroke-width="0" d="M213.5701176676885,264.7761160200613Q220.00472881808992,289.0563081357367 226.43933996849134,313.3365002514121" style="fill:none; opacity:0.8; stroke: url('#pxpy');"></path>
		<path class="link" generation="0" stroke-width="0" d="M213.5701176676885,264.7761160200613Q235.64301712473673,267.64891924869323 257.715916581785,270.5217224773251" style="fill:none; opacity:0.8; stroke: url('#pxpy');"></path>
		<path class="link" generation="0" stroke-width="0" d="M261.1879071627558,231.7375124311015Q301.69580427144416,229.98854165390452 342.20370138013254,228.23957087670755" style="fill:none; opacity:0.8; stroke: url('#pxny');"></path>
		<path class="link" generation="0" stroke-width="0" d="M261.1879071627558,231.7375124311015Q286.62963495978545,267.3163965921859 312.0713627568152,302.8952807532703" style="fill:none; opacity:0.8; stroke: url('#pxpy');"></path>
		<path class="link" generation="0" stroke-width="0" d="M261.1879071627558,231.7375124311015Q243.81362356562357,272.53700634125676 226.43933996849134,313.3365002514121" style="fill:none; opacity:0.8; stroke: url('#nxpy');"></path>
		<path class="link" generation="0" stroke-width="0" d="M261.1879071627558,231.7375124311015Q259.4519118722704,251.1296174542133 257.715916581785,270.5217224773251" style="fill:none; opacity:0.8; stroke: url('#nxpy');"></path>
		<path class="link" generation="0" stroke-width="0" d="M261.1879071627558,231.7375124311015Q237.37901241522212,248.2568142255814 213.5701176676885,264.7761160200613" style="fill:none; opacity:0.8; stroke: url('#nxpy');"></path>
		<path class="link" generation="0" stroke-width="0" d="M266.82732740601745,333.07028874165803Q304.515514393075,280.6549298091828 342.20370138013254,228.23957087670755" style="fill:none; opacity:0.8; stroke: url('#pxny');"></path>
		<path class="link" generation="0" stroke-width="0" d="M266.82732740601745,333.07028874165803Q289.4493450814163,317.98278474746417 312.0713627568152,302.8952807532703" style="fill:none; opacity:0.8; stroke: url('#pxny');"></path>
		<path class="link" generation="0" stroke-width="0" d="M266.82732740601745,333.07028874165803Q246.63333368725438,323.20339449653505 226.43933996849134,313.3365002514121" style="fill:none; opacity:0.8; stroke: url('#nxny');"></path>
		<path class="link" generation="0" stroke-width="0" d="M266.82732740601745,333.07028874165803Q262.27162199390125,301.79600560949154 257.715916581785,270.5217224773251" style="fill:none; opacity:0.8; stroke: url('#nxny');"></path>
		<path class="link" generation="0" stroke-width="0" d="M266.82732740601745,333.07028874165803Q240.19872253685298,298.92320238085966 213.5701176676885,264.7761160200613" style="fill:none; opacity:0.8; stroke: url('#nxny');"></path>
		<path class="link" generation="0" stroke-width="0" d="M266.82732740601745,333.07028874165803Q264.0076172843866,282.4039005863798 261.1879071627558,231.7375124311015" style="fill:none; opacity:0.8; stroke: url('#nxny');"></path>
		<path class="link" generation="0" stroke-width="0" d="M535.9395143941948,240.2461381748567Q487.1676743014583,247.7290133693346 438.3958342087218,255.21188856381252" style="fill:none; opacity:0.8; stroke: url('#nxpy');"></path>
		<path class="link" generation="0" stroke-width="0" d="M516.3784789310507,319.44790310314477Q477.38715656988626,287.32989583347864 438.3958342087218,255.21188856381252" style="fill:none; opacity:0.8; stroke: url('#nxny');"></path>
		<path class="link" generation="0" stroke-width="0" d="M403.1141811070495,154.01084860428224Q387.19328579352987,216.41415094239562 371.27239048001024,278.81745328050897" style="fill:none; opacity:0.8; stroke: url('#nxpy');"></path>
		<path class="link" generation="0" stroke-width="0" d="M403.1141811070495,154.01084860428224Q420.75500765788564,204.6113685840474 438.3958342087218,255.21188856381252" style="fill:none; opacity:0.8; stroke: url('#pxpy');"></path>
		<path class="link" generation="0" stroke-width="0" d="M356.2840078595796,208.01075488865695Q363.7781991697949,243.41410408458296 371.27239048001024,278.81745328050897" style="fill:none; opacity:0.8; stroke: url('#pxpy');"></path>
		<path class="link" generation="0" stroke-width="0" d="M356.2840078595796,208.01075488865695Q397.33992103415073,231.61132172623473 438.3958342087218,255.21188856381252" style="fill:none; opacity:0.8; stroke: url('#pxpy');"></path>
		<path class="link" generation="0" stroke-width="0" d="M356.2840078595796,208.01075488865695Q379.6990944833145,181.0108017464696 403.1141811070495,154.01084860428224" style="fill:none; opacity:0.8; stroke: url('#pxny');"></path>
		<path class="link" generation="0" stroke-width="0" d="M344.43106145847446,316.1312714313779Q343.3173814193035,272.18542115404273 342.20370138013254,228.23957087670755" style="fill:none; opacity:0.8; stroke: url('#nxny');"></path>
		<path class="link" generation="0" stroke-width="0" d="M344.43106145847446,316.1312714313779Q383.45057861356776,310.42367574808435 422.47009576866105,304.7160800647908" style="fill:none; opacity:0.8; stroke: url('#pxny');"></path>
		<path class="link" generation="0" stroke-width="0" d="M344.43106145847446,316.1312714313779Q363.2537251887819,281.2233427947219 382.07638891908937,246.3154141580658" style="fill:none; opacity:0.8; stroke: url('#pxny');"></path>
		<path class="link" generation="0" stroke-width="0" d="M236.81431168280386,209.93035736435513Q289.50900653146823,219.08496412053134 342.20370138013254,228.23957087670755" style="fill:none; opacity:0.8; stroke: url('#pxpy');"></path>
		<path class="link" generation="0" stroke-width="0" d="M236.81431168280386,209.93035736435513Q258.82747342786297,243.44821862266357 280.8406351729221,276.966079880972" style="fill:none; opacity:0.8; stroke: url('#pxpy');"></path>
		<path class="link" generation="0" stroke-width="0" d="M187.13620529858508,355.022183863023Q233.98842023575358,315.9941318719975 280.8406351729221,276.966079880972" style="fill:none; opacity:0.8; stroke: url('#pxny');"></path>
		<path class="link" generation="0" stroke-width="0" d="M350.51903958438845,49.651244501431755Q312.727774980595,11.990831179403028 274.93651037680144,-25.6695821426257" style="fill:none; opacity:0.8; stroke: url('#nxny');"></path>
		<path class="link" generation="0" stroke-width="0" d="M428.5902373856433,148.069330035905Q385.39696938288796,188.15445045630628 342.20370138013254,228.23957087670755" style="fill:none; opacity:0.8; stroke: url('#nxpy');"></path>
		<path class="link" generation="0" stroke-width="0" d="M428.5902373856433,148.069330035905Q433.49303579718253,201.64060929985877 438.3958342087218,255.21188856381252" style="fill:none; opacity:0.8; stroke: url('#pxpy');"></path>
		<path class="link" generation="0" stroke-width="0" d="M428.5902373856433,148.069330035905Q405.3333131523664,197.19237209698542 382.07638891908937,246.3154141580658" style="fill:none; opacity:0.8; stroke: url('#nxpy');"></path>
		<path class="link" generation="0" stroke-width="0" d="M428.5902373856433,148.069330035905Q389.55463848501586,98.86028726866839 350.51903958438845,49.651244501431755" style="fill:none; opacity:0.8; stroke: url('#nxny');"></path>
		<path class="link" generation="0" stroke-width="0" d="M420.5002445345383,247.6204108637054Q381.3519729573354,237.92999087020647 342.20370138013254,228.23957087670755" style="fill:none; opacity:0.8; stroke: url('#nxny');"></path>
		<path class="link" generation="0" stroke-width="0" d="M420.5002445345383,247.6204108637054Q421.4851701515997,276.1682454642481 422.47009576866105,304.7160800647908" style="fill:none; opacity:0.8; stroke: url('#pxpy');"></path>
		<path class="link" generation="0" stroke-width="0" d="M438.1043805652781,338.7188927766218Q404.6883855226442,308.76817302856534 371.27239048001024,278.81745328050897" style="fill:none; opacity:0.8; stroke: url('#nxny');"></path>
		<path class="link" generation="0" stroke-width="0" d="M438.1043805652781,338.7188927766218Q429.3023125499082,293.1696518201636 420.5002445345383,247.6204108637054" style="fill:none; opacity:0.8; stroke: url('#nxny');"></path>
		<path class="link" generation="0" stroke-width="0" d="M465.0671650181996,273.71017798470683Q403.6354331991661,250.9748744307072 342.20370138013254,228.23957087670755" style="fill:none; opacity:0.8; stroke: url('#nxny');"></path>
		<path class="link" generation="0" stroke-width="0" d="M465.0671650181996,273.71017798470683Q443.7686303934303,289.2131290247488 422.47009576866105,304.7160800647908" style="fill:none; opacity:0.8; stroke: url('#nxpy');"></path>
		<path class="link" generation="0" stroke-width="0" d="M465.0671650181996,273.71017798470683Q442.78370477636895,260.6652944242061 420.5002445345383,247.6204108637054" style="fill:none; opacity:0.8; stroke: url('#nxny');"></path>
		<path class="link" generation="0" stroke-width="0" d="M569.0828909929182,307.2625268703127Q552.5112026935565,273.7543325225847 535.9395143941948,240.2461381748567" style="fill:none; opacity:0.8; stroke: url('#nxny');"></path>
		<path class="link" generation="0" stroke-width="0" d="M569.0828909929182,307.2625268703127Q517.0750280055589,290.48635242750976 465.0671650181996,273.71017798470683" style="fill:none; opacity:0.8; stroke: url('#nxny');"></path>
		<path class="link" generation="0" stroke-width="0" d="M539.78169912794,350.693505384041Q502.4244320730698,312.2018416843739 465.0671650181996,273.71017798470683" style="fill:none; opacity:0.8; stroke: url('#nxny');"></path>
		<path class="link" generation="0" stroke-width="0" d="M514.590889603552,266.4800674854816Q468.5304926861065,285.5980737751362 422.47009576866105,304.7160800647908" style="fill:none; opacity:0.8; stroke: url('#nxpy');"></path>
		<path class="link" generation="0" stroke-width="0" d="M514.590889603552,266.4800674854816Q467.54556706904515,257.05023917459346 420.5002445345383,247.6204108637054" style="fill:none; opacity:0.8; stroke: url('#nxny');"></path>
		<path class="link" generation="0" stroke-width="0" d="M514.590889603552,266.4800674854816Q489.8290273108758,270.0951227350942 465.0671650181996,273.71017798470683" style="fill:none; opacity:0.8; stroke: url('#nxpy');"></path>
		<path class="link" generation="0" stroke-width="0" d="M457.4535164485437,190.87396455292765Q399.82860891433813,209.5567677148176 342.20370138013254,228.23957087670755" style="fill:none; opacity:0.8; stroke: url('#nxpy');"></path>
		<path class="link" generation="0" stroke-width="0" d="M457.4535164485437,190.87396455292765Q453.9537335102575,278.9821206014901 450.4539505719713,367.09027665005254" style="fill:none; opacity:0.8; stroke: url('#nxpy');"></path>
		<path class="link" generation="0" stroke-width="0" d="M457.4535164485437,190.87396455292765Q447.92467532863276,223.04292655837008 438.3958342087218,255.21188856381252" style="fill:none; opacity:0.8; stroke: url('#nxpy');"></path>
		<path class="link" generation="0" stroke-width="0" d="M457.4535164485437,190.87396455292765Q439.9618061086024,247.79502230885922 422.47009576866105,304.7160800647908" style="fill:none; opacity:0.8; stroke: url('#nxpy');"></path>
		<path class="link" generation="0" stroke-width="0" d="M457.4535164485437,190.87396455292765Q496.69651542136927,215.56005136389217 535.9395143941948,240.2461381748567" style="fill:none; opacity:0.8; stroke: url('#pxpy');"></path>
		<path class="link" generation="0" stroke-width="0" d="M457.4535164485437,190.87396455292765Q430.2838487777966,172.44240657860496 403.1141811070495,154.01084860428224" style="fill:none; opacity:0.8; stroke: url('#nxny');"></path>
		<path class="link" generation="0" stroke-width="0" d="M457.4535164485437,190.87396455292765Q443.02187691709355,169.47164729441633 428.5902373856433,148.069330035905" style="fill:none; opacity:0.8; stroke: url('#nxny');"></path>
		<path class="link" generation="0" stroke-width="0" d="M457.4535164485437,190.87396455292765Q438.976880491541,219.24718770831652 420.5002445345383,247.6204108637054" style="fill:none; opacity:0.8; stroke: url('#nxpy');"></path>
		<path class="link" generation="0" stroke-width="0" d="M457.4535164485437,190.87396455292765Q461.26034073337166,232.29207126881724 465.0671650181996,273.71017798470683" style="fill:none; opacity:0.8; stroke: url('#pxpy');"></path>
		<path class="link" generation="0" stroke-width="0" d="M457.4535164485437,190.87396455292765Q486.02220302604786,228.67701601920461 514.590889603552,266.4800674854816" style="fill:none; opacity:0.8; stroke: url('#pxpy');"></path>
		<path class="link" generation="0" stroke-width="0" d="M529.0844373473537,216.92785345275692Q474.792340940946,232.27413215823117 420.5002445345383,247.6204108637054" style="fill:none; opacity:0.8; stroke: url('#nxpy');"></path>
		<path class="link" generation="0" stroke-width="0" d="M529.0844373473537,216.92785345275692Q493.26897689794873,203.9009090028423 457.4535164485437,190.87396455292765" style="fill:none; opacity:0.8; stroke: url('#nxny');"></path>
		<path class="link" generation="0" stroke-width="0" d="M435.88721490596316,68.49983180211782Q419.50069800650635,111.25534020320003 403.1141811070495,154.01084860428224" style="fill:none; opacity:0.8; stroke: url('#nxpy');"></path>
		<path class="link" generation="0" stroke-width="0" d="M435.88721490596316,68.49983180211782Q432.23872614580324,108.28458091901142 428.5902373856433,148.069330035905" style="fill:none; opacity:0.8; stroke: url('#nxpy');"></path>
		<path class="link" generation="0" stroke-width="0" d="M435.88721490596316,68.49983180211782Q446.67036567725347,129.68689817752272 457.4535164485437,190.87396455292765" style="fill:none; opacity:0.8; stroke: url('#pxpy');"></path>
		<path class="link" generation="0" stroke-width="0" d="M399.93612449843744,132.1351332214764Q371.069912939285,180.18735204909197 342.20370138013254,228.23957087670755" style="fill:none; opacity:0.8; stroke: url('#nxpy');"></path>
		<path class="link" generation="0" stroke-width="0" d="M399.93612449843744,132.1351332214764Q391.00625670876343,189.2252736897711 382.07638891908937,246.3154141580658" style="fill:none; opacity:0.8; stroke: url('#nxpy');"></path>
		<path class="link" generation="0" stroke-width="0" d="M399.93612449843744,132.1351332214764Q414.2631809420404,140.1022316286907 428.5902373856433,148.069330035905" style="fill:none; opacity:0.8; stroke: url('#pxpy');"></path>
		<path class="link" generation="0" stroke-width="0" d="M399.93612449843744,132.1351332214764Q428.6948204734906,161.50454888720202 457.4535164485437,190.87396455292765" style="fill:none; opacity:0.8; stroke: url('#pxpy');"></path>
		<path class="link" generation="0" stroke-width="0" d="M399.93612449843744,132.1351332214764Q417.9116697022003,100.31748251179711 435.88721490596316,68.49983180211782" style="fill:none; opacity:0.8; stroke: url('#pxny');"></path>
		<path class="link" generation="0" stroke-width="0" d="M490.8551781606448,71.47960722793347Q459.72270777314407,109.77446863191923 428.5902373856433,148.069330035905" style="fill:none; opacity:0.8; stroke: url('#nxpy');"></path>
		<path class="link" generation="0" stroke-width="0" d="M490.8551781606448,71.47960722793347Q474.15434730459424,131.17678589043055 457.4535164485437,190.87396455292765" style="fill:none; opacity:0.8; stroke: url('#nxpy');"></path>
		<path class="link" generation="0" stroke-width="0" d="M490.8551781606448,71.47960722793347Q463.371196533304,69.98971951502566 435.88721490596316,68.49983180211782" style="fill:none; opacity:0.8; stroke: url('#nxny');"></path>
		<path class="link" generation="0" stroke-width="0" d="M490.8551781606448,71.47960722793347Q445.3956513295411,101.80737022470493 399.93612449843744,132.1351332214764" style="fill:none; opacity:0.8; stroke: url('#nxpy');"></path>
		<path class="link" generation="0" stroke-width="0" d="M431.3334744083773,49.01755245482571Q429.9618558970103,98.54344124536536 428.5902373856433,148.069330035905" style="fill:none; opacity:0.8; stroke: url('#nxpy');"></path>
		<path class="link" generation="0" stroke-width="0" d="M431.3334744083773,49.01755245482571Q415.63479945340737,90.57634283815105 399.93612449843744,132.1351332214764" style="fill:none; opacity:0.8; stroke: url('#nxpy');"></path>
		<path class="link" generation="0" stroke-width="0" d="M431.3334744083773,49.01755245482571Q461.09432628451106,60.248579841379595 490.8551781606448,71.47960722793347" style="fill:none; opacity:0.8; stroke: url('#pxpy');"></path>
		<path class="link" generation="0" stroke-width="0" d="M507.5735831770366,129.71324680308456Q468.08191028133996,138.8912884194948 428.5902373856433,148.069330035905" style="fill:none; opacity:0.8; stroke: url('#nxpy');"></path>
		<path class="link" generation="0" stroke-width="0" d="M507.5735831770366,129.71324680308456Q482.5135498127902,160.2936056780061 457.4535164485437,190.87396455292765" style="fill:none; opacity:0.8; stroke: url('#nxpy');"></path>
		<path class="link" generation="0" stroke-width="0" d="M507.5735831770366,129.71324680308456Q471.7303990414999,99.10653930260119 435.88721490596316,68.49983180211782" style="fill:none; opacity:0.8; stroke: url('#nxny');"></path>
		<path class="link" generation="0" stroke-width="0" d="M507.5735831770366,129.71324680308456Q453.754853837737,130.92419001228046 399.93612449843744,132.1351332214764" style="fill:none; opacity:0.8; stroke: url('#nxpy');"></path>
		<path class="link" generation="0" stroke-width="0" d="M507.5735831770366,129.71324680308456Q499.2143806688407,100.59642701550902 490.8551781606448,71.47960722793347" style="fill:none; opacity:0.8; stroke: url('#nxny');"></path>
		<path class="link" generation="0" stroke-width="0" d="M507.5735831770366,129.71324680308456Q469.45352879270695,89.36539962895513 431.3334744083773,49.01755245482571" style="fill:none; opacity:0.8; stroke: url('#nxny');"></path>
		<path class="link" generation="0" stroke-width="0" d="M456.36041457877616,99.25771331627945Q429.7372978429128,126.63428096028085 403.1141811070495,154.01084860428224" style="fill:none; opacity:0.8; stroke: url('#nxpy');"></path>
		<path class="link" generation="0" stroke-width="0" d="M456.36041457877616,99.25771331627945Q442.4753259822097,123.66352167609223 428.5902373856433,148.069330035905" style="fill:none; opacity:0.8; stroke: url('#nxpy');"></path>
		<path class="link" generation="0" stroke-width="0" d="M456.36041457877616,99.25771331627945Q456.90696551365994,145.06583893460356 457.4535164485437,190.87396455292765" style="fill:none; opacity:0.8; stroke: url('#pxpy');"></path>
		<path class="link" generation="0" stroke-width="0" d="M456.36041457877616,99.25771331627945Q446.12381474236963,83.87877255919864 435.88721490596316,68.49983180211782" style="fill:none; opacity:0.8; stroke: url('#nxny');"></path>
		<path class="link" generation="0" stroke-width="0" d="M456.36041457877616,99.25771331627945Q428.14826953860677,115.69642326887792 399.93612449843744,132.1351332214764" style="fill:none; opacity:0.8; stroke: url('#nxpy');"></path>
		<path class="link" generation="0" stroke-width="0" d="M456.36041457877616,99.25771331627945Q473.6077963697105,85.36866027210647 490.8551781606448,71.47960722793347" style="fill:none; opacity:0.8; stroke: url('#pxny');"></path>
		<path class="link" generation="0" stroke-width="0" d="M456.36041457877616,99.25771331627945Q443.84694449357676,74.13763288555258 431.3334744083773,49.01755245482571" style="fill:none; opacity:0.8; stroke: url('#nxny');"></path>
		<path class="link" generation="0" stroke-width="0" d="M456.36041457877616,99.25771331627945Q481.96699887790635,114.485480059682 507.5735831770366,129.71324680308456" style="fill:none; opacity:0.8; stroke: url('#pxpy');"></path>
		<path class="link" generation="0" stroke-width="0" d="M476.67419809942237,126.06209558435805Q452.6322177425328,137.06571281013152 428.5902373856433,148.069330035905" style="fill:none; opacity:0.8; stroke: url('#nxpy');"></path>
		<path class="link" generation="0" stroke-width="0" d="M476.67419809942237,126.06209558435805Q467.06385727398305,158.46803006864286 457.4535164485437,190.87396455292765" style="fill:none; opacity:0.8; stroke: url('#nxpy');"></path>
		<path class="link" generation="0" stroke-width="0" d="M476.67419809942237,126.06209558435805Q456.28070650269274,97.28096369323794 435.88721490596316,68.49983180211782" style="fill:none; opacity:0.8; stroke: url('#nxny');"></path>
		<path class="link" generation="0" stroke-width="0" d="M476.67419809942237,126.06209558435805Q438.3051612989299,129.09861440291724 399.93612449843744,132.1351332214764" style="fill:none; opacity:0.8; stroke: url('#nxpy');"></path>
		<path class="link" generation="0" stroke-width="0" d="M476.67419809942237,126.06209558435805Q483.7646881300336,98.77085140614577 490.8551781606448,71.47960722793347" style="fill:none; opacity:0.8; stroke: url('#pxny');"></path>
		<path class="link" generation="0" stroke-width="0" d="M476.67419809942237,126.06209558435805Q454.00383625389986,87.53982401959188 431.3334744083773,49.01755245482571" style="fill:none; opacity:0.8; stroke: url('#nxny');"></path>
		<path class="link" generation="0" stroke-width="0" d="M476.67419809942237,126.06209558435805Q492.12389063822945,127.8876711937213 507.5735831770366,129.71324680308456" style="fill:none; opacity:0.8; stroke: url('#pxpy');"></path>
		<path class="link" generation="0" stroke-width="0" d="M476.67419809942237,126.06209558435805Q466.51730633909926,112.65990445031875 456.36041457877616,99.25771331627945" style="fill:none; opacity:0.8; stroke: url('#nxny');"></path>
		<path class="link" generation="0" stroke-width="0" d="M399.65778592333737,105.87605854684628Q370.93074365173493,167.05781471177693 342.20370138013254,228.23957087670755" style="fill:none; opacity:0.8; stroke: url('#nxpy');"></path>
		<path class="link" generation="0" stroke-width="0" d="M399.65778592333737,105.87605854684628Q414.12401165449035,126.97269429137565 428.5902373856433,148.069330035905" style="fill:none; opacity:0.8; stroke: url('#pxpy');"></path>
		<path class="link" generation="0" stroke-width="0" d="M399.65778592333737,105.87605854684628Q428.5556511859405,148.37501154988695 457.4535164485437,190.87396455292765" style="fill:none; opacity:0.8; stroke: url('#pxpy');"></path>
		<path class="link" generation="0" stroke-width="0" d="M399.65778592333737,105.87605854684628Q417.77250041465027,87.18794517448205 435.88721490596316,68.49983180211782" style="fill:none; opacity:0.8; stroke: url('#pxny');"></path>
		<path class="link" generation="0" stroke-width="0" d="M399.65778592333737,105.87605854684628Q399.7969552108874,119.00559588416134 399.93612449843744,132.1351332214764" style="fill:none; opacity:0.8; stroke: url('#pxpy');"></path>
		<path class="link" generation="0" stroke-width="0" d="M399.65778592333737,105.87605854684628Q445.2564820419911,88.67783288738988 490.8551781606448,71.47960722793347" style="fill:none; opacity:0.8; stroke: url('#pxny');"></path>
		<path class="link" generation="0" stroke-width="0" d="M399.65778592333737,105.87605854684628Q415.49563016585734,77.44680550083599 431.3334744083773,49.01755245482571" style="fill:none; opacity:0.8; stroke: url('#pxny');"></path>
		<path class="link" generation="0" stroke-width="0" d="M399.65778592333737,105.87605854684628Q453.615684550187,117.79465267496542 507.5735831770366,129.71324680308456" style="fill:none; opacity:0.8; stroke: url('#pxpy');"></path>
		<path class="link" generation="0" stroke-width="0" d="M399.65778592333737,105.87605854684628Q428.0091002510568,102.56688593156287 456.36041457877616,99.25771331627945" style="fill:none; opacity:0.8; stroke: url('#pxny');"></path>
		<path class="link" generation="0" stroke-width="0" d="M399.65778592333737,105.87605854684628Q438.1659920113799,115.96907706560216 476.67419809942237,126.06209558435805" style="fill:none; opacity:0.8; stroke: url('#pxpy');"></path>
		<path class="link" generation="0" stroke-width="0" d="M506.41601294626406,94.55472098047402Q467.5031251659537,121.31202550818952 428.5902373856433,148.069330035905" style="fill:none; opacity:0.8; stroke: url('#nxpy');"></path>
		<path class="link" generation="0" stroke-width="0" d="M506.41601294626406,94.55472098047402Q481.9347646974039,142.71434276670084 457.4535164485437,190.87396455292765" style="fill:none; opacity:0.8; stroke: url('#nxpy');"></path>
		<path class="link" generation="0" stroke-width="0" d="M506.41601294626406,94.55472098047402Q471.1516139261136,81.52727639129591 435.88721490596316,68.49983180211782" style="fill:none; opacity:0.8; stroke: url('#nxny');"></path>
		<path class="link" generation="0" stroke-width="0" d="M506.41601294626406,94.55472098047402Q453.17606872235075,113.34492710097521 399.93612449843744,132.1351332214764" style="fill:none; opacity:0.8; stroke: url('#nxpy');"></path>
		<path class="link" generation="0" stroke-width="0" d="M506.41601294626406,94.55472098047402Q498.63559555345444,83.01716410420374 490.8551781606448,71.47960722793347" style="fill:none; opacity:0.8; stroke: url('#nxny');"></path>
		<path class="link" generation="0" stroke-width="0" d="M506.41601294626406,94.55472098047402Q468.8747436773207,71.78613671764987 431.3334744083773,49.01755245482571" style="fill:none; opacity:0.8; stroke: url('#nxny');"></path>
		<path class="link" generation="0" stroke-width="0" d="M506.41601294626406,94.55472098047402Q506.99479806165033,112.13398389177928 507.5735831770366,129.71324680308456" style="fill:none; opacity:0.8; stroke: url('#pxpy');"></path>
		<path class="link" generation="0" stroke-width="0" d="M506.41601294626406,94.55472098047402Q481.3882137625201,96.90621714837673 456.36041457877616,99.25771331627945" style="fill:none; opacity:0.8; stroke: url('#nxpy');"></path>
		<path class="link" generation="0" stroke-width="0" d="M506.41601294626406,94.55472098047402Q491.5451055228432,110.30840828241602 476.67419809942237,126.06209558435805" style="fill:none; opacity:0.8; stroke: url('#nxpy');"></path>
		<path class="link" generation="0" stroke-width="0" d="M506.41601294626406,94.55472098047402Q453.0368994348007,100.21538976366014 399.65778592333737,105.87605854684628" style="fill:none; opacity:0.8; stroke: url('#nxpy');"></path>
		<path class="link" generation="0" stroke-width="0" d="M469.2789305251205,41.56038389516804Q448.93458395538187,94.81485696553652 428.5902373856433,148.069330035905" style="fill:none; opacity:0.8; stroke: url('#nxpy');"></path>
		<path class="link" generation="0" stroke-width="0" d="M469.2789305251205,41.56038389516804Q434.6075275117789,86.84775855832221 399.93612449843744,132.1351332214764" style="fill:none; opacity:0.8; stroke: url('#nxpy');"></path>
		<path class="link" generation="0" stroke-width="0" d="M469.2789305251205,41.56038389516804Q480.06705434288267,56.51999556155076 490.8551781606448,71.47960722793347" style="fill:none; opacity:0.8; stroke: url('#pxpy');"></path>
		<path class="link" generation="0" stroke-width="0" d="M469.2789305251205,41.56038389516804Q450.3062024667489,45.288968174996874 431.3334744083773,49.01755245482571" style="fill:none; opacity:0.8; stroke: url('#nxpy');"></path>
		<path class="link" generation="0" stroke-width="0" d="M469.2789305251205,41.56038389516804Q488.4262568510785,85.6368153491263 507.5735831770366,129.71324680308456" style="fill:none; opacity:0.8; stroke: url('#pxpy');"></path>
		<path class="link" generation="0" stroke-width="0" d="M469.2789305251205,41.56038389516804Q462.8196725519483,70.40904860572374 456.36041457877616,99.25771331627945" style="fill:none; opacity:0.8; stroke: url('#nxpy');"></path>
		<path class="link" generation="0" stroke-width="0" d="M469.2789305251205,41.56038389516804Q472.9765643122714,83.81123973976304 476.67419809942237,126.06209558435805" style="fill:none; opacity:0.8; stroke: url('#pxpy');"></path>
		<path class="link" generation="0" stroke-width="0" d="M469.2789305251205,41.56038389516804Q434.46835822422895,73.71822122100716 399.65778592333737,105.87605854684628" style="fill:none; opacity:0.8; stroke: url('#nxpy');"></path>
		<path class="link" generation="0" stroke-width="0" d="M469.2789305251205,41.56038389516804Q487.84747173569224,68.05755243782103 506.41601294626406,94.55472098047402" style="fill:none; opacity:0.8; stroke: url('#pxpy');"></path>
		<path class="link" generation="0" stroke-width="0" d="M411.1720279665657,-31.428688003367707Q423.5296214362644,18.535571899375057 435.88721490596316,68.49983180211782" style="fill:none; opacity:0.8; stroke: url('#pxpy');"></path>
		<path class="link" generation="0" stroke-width="0" d="M412.7937848593605,218.32461857437693Q377.49874311974656,223.28209472554224 342.20370138013254,228.23957087670755" style="fill:none; opacity:0.8; stroke: url('#nxpy');"></path>
		<path class="link" generation="0" stroke-width="0" d="M412.7937848593605,218.32461857437693Q392.0330876696854,248.57103592744295 371.27239048001024,278.81745328050897" style="fill:none; opacity:0.8; stroke: url('#nxpy');"></path>
		<path class="link" generation="0" stroke-width="0" d="M412.7937848593605,218.32461857437693Q425.59480953404113,236.76825356909472 438.3958342087218,255.21188856381252" style="fill:none; opacity:0.8; stroke: url('#pxpy');"></path>
		<path class="link" generation="0" stroke-width="0" d="M412.7937848593605,218.32461857437693Q397.435086889225,232.32001636622135 382.07638891908937,246.3154141580658" style="fill:none; opacity:0.8; stroke: url('#nxpy');"></path>
		<path class="link" generation="0" stroke-width="0" d="M412.7937848593605,218.32461857437693Q407.95398298320504,186.1677335893296 403.1141811070495,154.01084860428224" style="fill:none; opacity:0.8; stroke: url('#nxny');"></path>
		<path class="link" generation="0" stroke-width="0" d="M412.7937848593605,218.32461857437693Q420.6920111225019,183.19697430514097 428.5902373856433,148.069330035905" style="fill:none; opacity:0.8; stroke: url('#pxny');"></path>
		<path class="link" generation="0" stroke-width="0" d="M368.85011472889045,180.35028378888484Q355.5269080545115,204.2949273327962 342.20370138013254,228.23957087670755" style="fill:none; opacity:0.8; stroke: url('#nxpy');"></path>
		<path class="link" generation="0" stroke-width="0" d="M368.85011472889045,180.35028378888484Q370.0612526044504,229.5838685346969 371.27239048001024,278.81745328050897" style="fill:none; opacity:0.8; stroke: url('#pxpy');"></path>
		<path class="link" generation="0" stroke-width="0" d="M368.85011472889045,180.35028378888484Q403.6229744688061,217.78108617634868 438.3958342087218,255.21188856381252" style="fill:none; opacity:0.8; stroke: url('#pxpy');"></path>
		<path class="link" generation="0" stroke-width="0" d="M368.85011472889045,180.35028378888484Q375.46325182398994,213.33284897347534 382.07638891908937,246.3154141580658" style="fill:none; opacity:0.8; stroke: url('#pxpy');"></path>
		<path class="link" generation="0" stroke-width="0" d="M368.85011472889045,180.35028378888484Q385.98214791797,167.18056619658353 403.1141811070495,154.01084860428224" style="fill:none; opacity:0.8; stroke: url('#pxny');"></path>
		<path class="link" generation="0" stroke-width="0" d="M368.85011472889045,180.35028378888484Q398.7201760572669,164.20980691239492 428.5902373856433,148.069330035905" style="fill:none; opacity:0.8; stroke: url('#pxny');"></path>
		<path class="link" generation="0" stroke-width="0" d="M368.85011472889045,180.35028378888484Q390.8219497941255,199.33745118163088 412.7937848593605,218.32461857437693" style="fill:none; opacity:0.8; stroke: url('#pxpy');"></path>
		<path class="link" generation="0" stroke-width="0" d="M423.4944877741201,189.1041488501144Q382.8490945771263,208.671859863411 342.20370138013254,228.23957087670755" style="fill:none; opacity:0.8; stroke: url('#nxpy');"></path>
		<path class="link" generation="0" stroke-width="0" d="M423.4944877741201,189.1041488501144Q397.3834391270652,233.96080106531167 371.27239048001024,278.81745328050897" style="fill:none; opacity:0.8; stroke: url('#nxpy');"></path>
		<path class="link" generation="0" stroke-width="0" d="M423.4944877741201,189.1041488501144Q430.94516099142095,222.15801870696345 438.3958342087218,255.21188856381252" style="fill:none; opacity:0.8; stroke: url('#pxpy');"></path>
		<path class="link" generation="0" stroke-width="0" d="M423.4944877741201,189.1041488501144Q402.78543834660474,217.7097815040901 382.07638891908937,246.3154141580658" style="fill:none; opacity:0.8; stroke: url('#nxpy');"></path>
		<path class="link" generation="0" stroke-width="0" d="M423.4944877741201,189.1041488501144Q413.3043344405848,171.55749872719832 403.1141811070495,154.01084860428224" style="fill:none; opacity:0.8; stroke: url('#nxny');"></path>
		<path class="link" generation="0" stroke-width="0" d="M423.4944877741201,189.1041488501144Q411.71530613627874,160.61964103579538 399.93612449843744,132.1351332214764" style="fill:none; opacity:0.8; stroke: url('#nxny');"></path>
		<path class="link" generation="0" stroke-width="0" d="M423.4944877741201,189.1041488501144Q418.1441363167403,203.71438371224565 412.7937848593605,218.32461857437693" style="fill:none; opacity:0.8; stroke: url('#nxpy');"></path>
		<path class="link" generation="0" stroke-width="0" d="M423.4944877741201,189.1041488501144Q396.17230125150525,184.72721631949963 368.85011472889045,180.35028378888484" style="fill:none; opacity:0.8; stroke: url('#nxny');"></path>
		<path class="link" generation="0" stroke-width="0" d="M459.6946977274711,217.97575962234524Q400.9491995538018,223.1076652495264 342.20370138013254,228.23957087670755" style="fill:none; opacity:0.8; stroke: url('#nxpy');"></path>
		<path class="link" generation="0" stroke-width="0" d="M459.6946977274711,217.97575962234524Q449.0452659680965,236.59382409307887 438.3958342087218,255.21188856381252" style="fill:none; opacity:0.8; stroke: url('#nxpy');"></path>
		<path class="link" generation="0" stroke-width="0" d="M459.6946977274711,217.97575962234524Q420.8855433232802,232.14558689020552 382.07638891908937,246.3154141580658" style="fill:none; opacity:0.8; stroke: url('#nxpy');"></path>
		<path class="link" generation="0" stroke-width="0" d="M459.6946977274711,217.97575962234524Q431.4044394172603,185.99330411331374 403.1141811070495,154.01084860428224" style="fill:none; opacity:0.8; stroke: url('#nxny');"></path>
		<path class="link" generation="0" stroke-width="0" d="M459.6946977274711,217.97575962234524Q444.1424675565572,183.02254482912514 428.5902373856433,148.069330035905" style="fill:none; opacity:0.8; stroke: url('#nxny');"></path>
		<path class="link" generation="0" stroke-width="0" d="M459.6946977274711,217.97575962234524Q436.2442412934158,218.15018909836107 412.7937848593605,218.32461857437693" style="fill:none; opacity:0.8; stroke: url('#nxpy');"></path>
		<path class="link" generation="0" stroke-width="0" d="M459.6946977274711,217.97575962234524Q414.2724062281808,199.16302170561505 368.85011472889045,180.35028378888484" style="fill:none; opacity:0.8; stroke: url('#nxny');"></path>
		<path class="link" generation="0" stroke-width="0" d="M459.6946977274711,217.97575962234524Q441.59459275079564,203.53995423622982 423.4944877741201,189.1041488501144" style="fill:none; opacity:0.8; stroke: url('#nxny');"></path>
		<path class="link" generation="0" stroke-width="0" d="M357.0561643783696,329.1435291023693Q349.6299328792511,278.69154998953843 342.20370138013254,228.23957087670755" style="fill:none; opacity:0.8; stroke: url('#nxny');"></path>
		<path class="link" generation="0" stroke-width="0" d="M357.0561643783696,329.1435291023693Q389.7631300735153,316.92980458358005 422.47009576866105,304.7160800647908" style="fill:none; opacity:0.8; stroke: url('#pxny');"></path>
		<path class="link" generation="0" stroke-width="0" d="M357.0561643783696,329.1435291023693Q369.5662766487295,287.7294716302176 382.07638891908937,246.3154141580658" style="fill:none; opacity:0.8; stroke: url('#pxny');"></path>
		<path class="link" generation="0" stroke-width="0" d="M340.0280356213828,84.72481185561271Q384.30913650351306,116.39707094575886 428.5902373856433,148.069330035905" style="fill:none; opacity:0.8; stroke: url('#pxpy');"></path>
		<path class="link" generation="0" stroke-width="0" d="M387.4196884066968,38.85349010032431Q408.00496289617007,93.46141006811466 428.5902373856433,148.069330035905" style="fill:none; opacity:0.8; stroke: url('#pxpy');"></path>
		<path class="link" generation="0" stroke-width="0" d="M387.4196884066968,38.85349010032431Q363.7238620140398,61.78915097796851 340.0280356213828,84.72481185561271" style="fill:none; opacity:0.8; stroke: url('#nxpy');"></path>
		<path class="link" generation="0" stroke-width="0" d="M488.48679123966156,174.07666251152074Q463.4413127241917,214.64427553766663 438.3958342087218,255.21188856381252" style="fill:none; opacity:0.8; stroke: url('#nxpy');"></path>
		<path class="link" generation="0" stroke-width="0" d="M488.48679123966156,174.07666251152074Q445.8004861733555,164.04375555790148 403.1141811070495,154.01084860428224" style="fill:none; opacity:0.8; stroke: url('#nxny');"></path>
		<path class="link" generation="0" stroke-width="0" d="M488.48679123966156,174.07666251152074Q458.5385143126524,161.07299627371287 428.5902373856433,148.069330035905" style="fill:none; opacity:0.8; stroke: url('#nxny');"></path>
		<path class="link" generation="0" stroke-width="0" d="M488.48679123966156,174.07666251152074Q450.640288049511,196.20064054294883 412.7937848593605,218.32461857437693" style="fill:none; opacity:0.8; stroke: url('#nxpy');"></path>
		<path class="link" generation="0" stroke-width="0" d="M488.48679123966156,174.07666251152074Q428.668452984276,177.2134731502028 368.85011472889045,180.35028378888484" style="fill:none; opacity:0.8; stroke: url('#nxpy');"></path>
		<path class="link" generation="0" stroke-width="0" d="M488.48679123966156,174.07666251152074Q455.99063950689083,181.59040568081758 423.4944877741201,189.1041488501144" style="fill:none; opacity:0.8; stroke: url('#nxpy');"></path>
		<path class="link" generation="0" stroke-width="0" d="M488.48679123966156,174.07666251152074Q474.09074448356637,196.026211066933 459.6946977274711,217.97575962234524" style="fill:none; opacity:0.8; stroke: url('#nxpy');"></path>
		<path class="link" generation="0" stroke-width="0" d="M414.06766900153315,49.073028880913974Q421.32895319358823,98.57117945840949 428.5902373856433,148.069330035905" style="fill:none; opacity:0.8; stroke: url('#pxpy');"></path>
		<path class="link" generation="0" stroke-width="0" d="M414.06766900153315,49.073028880913974Q407.0018967499853,90.60408105119518 399.93612449843744,132.1351332214764" style="fill:none; opacity:0.8; stroke: url('#nxpy');"></path>
		<path class="link" generation="0" stroke-width="0" d="M414.06766900153315,49.073028880913974Q435.2140417901546,74.16537109859671 456.36041457877616,99.25771331627945" style="fill:none; opacity:0.8; stroke: url('#pxpy');"></path>
		<path class="link" generation="0" stroke-width="0" d="M414.06766900153315,49.073028880913974Q445.37093355047773,87.567562232636 476.67419809942237,126.06209558435805" style="fill:none; opacity:0.8; stroke: url('#pxpy');"></path>
		<path class="link" generation="0" stroke-width="0" d="M414.06766900153315,49.073028880913974Q406.86272746243526,77.47454371388012 399.65778592333737,105.87605854684628" style="fill:none; opacity:0.8; stroke: url('#nxpy');"></path>
		<path class="link" generation="0" stroke-width="0" d="M414.06766900153315,49.073028880913974Q460.2418409738986,71.813874930694 506.41601294626406,94.55472098047402" style="fill:none; opacity:0.8; stroke: url('#pxpy');"></path>
		<path class="link" generation="0" stroke-width="0" d="M414.06766900153315,49.073028880913974Q441.6732997633268,45.316706388041005 469.2789305251205,41.56038389516804" style="fill:none; opacity:0.8; stroke: url('#pxny');"></path>
		<path class="link" generation="1" stroke-width="2.6457513110645907" style="fill:none; opacity:0.8; visibility: visible; stroke: url('#nxny');" d="M415.25,54.0413984655313Q353.1380844596736,65.34622301745618 304.99999999999994,24.5"></path>
		<path class="link" generation="1" stroke-width="5" style="fill:none; opacity:0.8; visibility: visible; stroke: url('#down');" d="M304.99999999999994,24.5QNaN,NaN 304.99999999999994,24.5"></path>
		<path class="link" generation="1" stroke-width="3.3166247903554" style="fill:none; opacity:0.8; visibility: visible; stroke: url('#nxny');" d="M495.9586015344688,355.24999999999983Q288.95660579504965,254.26265796294336 304.99999999999994,24.5"></path>
		<path class="link" generation="1" stroke-width="8.717797887081348" style="fill:none; opacity:0.8; visibility: visible; stroke: url('#down');" d="M495.9586015344688,355.24999999999983QNaN,NaN 495.9586015344688,355.24999999999983"></path>
		<path class="link" generation="1" stroke-width="3.1622776601683795" style="fill:none; opacity:0.8; visibility: visible; stroke: url('#pxpy');" d="M495.9586015344687,134.7499999999999Q549.8005149985913,244.99999999999983 495.9586015344688,355.24999999999983"></path>
		<path class="link" generation="1" stroke-width="7.615773105863909" style="fill:none; opacity:0.8; visibility: visible; stroke: url('#pxny');" d="M415.2500000000001,435.9586015344687Q436.5363922814807,376.5363922814805 495.9586015344688,355.24999999999983"></path>
		<path class="link" generation="1" stroke-width="6.082762530298219" style="fill:none; opacity:0.8; visibility: visible; stroke: url('#down');" d="M525.5,244.99999999999994QNaN,NaN 525.5,244.99999999999994"></path>
		<path class="link" generation="1" stroke-width="7" style="fill:none; opacity:0.8; visibility: visible; stroke: url('#pxpy');" d="M495.9586015344687,134.7499999999999Q536.8048245519249,182.88808445967356 525.5,244.99999999999994"></path>
		<path class="link" generation="1" stroke-width="3.7416573867739413" style="fill:none; opacity:0.8; visibility: visible; stroke: url('#down');" d="M495.9586015344687,134.7499999999999QNaN,NaN 495.9586015344687,134.7499999999999"></path>
		<path class="link" generation="1" stroke-width="2.6457513110645907" style="fill:none; opacity:0.8; visibility: visible; stroke: url('#pxny');" d="M114.04139846553124,355.24999999999994Q304.99999999999994,244.72419629457727 495.9586015344688,355.24999999999983"></path>
		<path class="link" generation="1" stroke-width="1.4142135623730951" style="fill:none; opacity:0.8; visibility: visible; stroke: url('#pxny');" d="M114.04139846553124,355.24999999999994Q224.2741373109954,105.17870433781522 495.9586015344687,134.7499999999999"></path>
		<path class="link" generation="1" stroke-width="4.58257569495584" style="fill:none; opacity:0.8; visibility: visible; stroke: url('#pxpy');" d="M84.5,245.00000000000009Q327.40353242462925,161.3888787222666 495.9586015344688,355.24999999999983"></path>
		<path class="link" generation="1" stroke-width="1" style="fill:none; opacity:0.8; visibility: visible; stroke: url('#pxny');" d="M84.5,245.00000000000009Q253.05506910983934,51.13887872226667 495.9586015344687,134.7499999999999"></path>
		<path class="link" generation="1" stroke-width="4.58257569495584" style="fill:none; opacity:0.8; visibility: visible; stroke: url('#pxpy');" d="M84.5,245.00000000000009Q125.34622301745611,293.1380844596737 114.04139846553124,355.24999999999994"></path>
		<path class="link" generation="1" stroke-width="1" style="fill:none; opacity:0.8; visibility: visible; stroke: url('#pxny');" d="M415.2500000000001,435.9586015344687Q419.87065960058754,311.3206062423891 525.5,244.99999999999994"></path>
		<path class="link" generation="1" stroke-width="2" style="fill:none; opacity:0.8; visibility: visible; stroke: url('#nxny');" d="M415.2500000000001,435.9586015344687Q241.28884864091708,482.7732538808084 114.04139846553124,355.24999999999994"></path>
		<path class="link" generation="1" stroke-width="1" style="fill:none; opacity:0.8; visibility: visible; stroke: url('#nxny');" d="M415.2500000000001,435.9586015344687Q185.4873420370567,452.00199573941927 84.5,245.00000000000009"></path>
		<path class="link" generation="1" stroke-width="2.8284271247461903" style="fill:none; opacity:0.8; visibility: visible; stroke: url('#nxny');" d="M495.9586015344688,355.24999999999983Q442.11668807034624,244.9999999999999 495.9586015344687,134.7499999999999"></path>
		<path class="link" generation="1" stroke-width="2.6457513110645907" style="fill:none; opacity:0.8; visibility: visible; stroke: url('#nxpy');" d="M495.9586015344688,355.24999999999983Q305.00000000000006,465.7758037054225 114.04139846553124,355.24999999999994"></path>
		<path class="link" generation="1" stroke-width="2.8284271247461903" style="fill:none; opacity:0.8; visibility: visible; stroke: url('#nxny');" d="M495.9586015344688,355.24999999999983Q253.05506910983956,438.8611212777333 84.5,245.00000000000009"></path>
		<path class="link" generation="1" stroke-width="6" style="fill:none; opacity:0.8; visibility: visible; stroke: url('#nxpy');" d="M495.9586015344688,355.24999999999983Q474.67220925298824,414.67220925298795 415.2500000000001,435.9586015344687"></path>
		<path class="link" generation="1" stroke-width="1.7320508075688772" style="fill:none; opacity:0.8; visibility: visible; stroke: url('#pxny');" d="M305.00000000000006,465.5Q371.3206062423891,359.8706596005874 495.9586015344688,355.24999999999983"></path>
		<path class="link" generation="1" stroke-width="1" style="fill:none; opacity:0.8; visibility: visible; stroke: url('#pxny');" d="M305.00000000000006,465.5Q288.9566057950495,235.73734203705655 495.9586015344687,134.7499999999999"></path>
		<path class="link" generation="1" stroke-width="3.4641016151377544" style="fill:none; opacity:0.8; visibility: visible; stroke: url('#pxny');" d="M194.75000000000017,435.9586015344688Q321.99745017538584,308.4353476536603 495.9586015344688,355.24999999999983"></path>
		<path class="link" generation="1" stroke-width="2.6457513110645907" style="fill:none; opacity:0.8; visibility: visible; stroke: url('#pxpy');" d="M194.75000000000017,435.9586015344688Q256.86191554032644,424.6537769825439 305.00000000000006,465.5"></path>
		<path class="link" generation="1" stroke-width="4.58257569495584" style="fill:none; opacity:0.8; visibility: visible; stroke: url('#down');" d="M194.75000000000017,435.9586015344688QNaN,NaN 194.75000000000017,435.9586015344688"></path>
		<path class="link" generation="1" stroke-width="6.928203230275509" style="fill:none; opacity:0.8; visibility: visible; stroke: url('#down');" d="M84.5,245.00000000000009QNaN,NaN 84.5,245.00000000000009"></path>
		<path class="link" generation="1" stroke-width="2.23606797749979" style="fill:none; opacity:0.8; visibility: visible; stroke: url('#down');" d="M114.04139846553124,355.24999999999994QNaN,NaN 114.04139846553124,355.24999999999994"></path>
		<path class="link" generation="1" stroke-width="2.23606797749979" style="fill:none; opacity:0.8; visibility: visible; stroke: url('#nxny');" d="M114.04139846553124,355.24999999999994Q73.19517544807513,307.1119155403263 84.5,245.00000000000009"></path>
		<path class="link" generation="1" stroke-width="2.23606797749979" style="fill:none; opacity:0.8; visibility: visible; stroke: url('#down');" d="M415.2500000000001,435.9586015344687QNaN,NaN 415.2500000000001,435.9586015344687"></path>
		<path class="link" generation="1" stroke-width="3.3166247903554" style="fill:none; opacity:0.8; visibility: visible; stroke: url('#nxpy');" d="M194.74999999999972,54.041398465531444Q173.46360771851917,113.4636077185195 114.04139846553116,134.75000000000017"></path>
		<path class="link" generation="1" stroke-width="6.6332495807108" style="fill:none; opacity:0.8; visibility: visible; stroke: url('#pxpy');" d="M114.04139846553116,134.75000000000017Q385.7258626890045,105.17870433781522 495.9586015344688,355.24999999999983"></path>
		<path class="link" generation="1" stroke-width="1" style="fill:none; opacity:0.8; visibility: visible; stroke: url('#nxpy');" d="M114.04139846553116,134.75000000000017Q125.34622301745608,196.86191554032644 84.5,245.00000000000009"></path>
		<path class="link" generation="1" stroke-width="1.4142135623730951" style="fill:none; opacity:0.8; visibility: visible; stroke: url('#pxny');" d="M114.04139846553116,134.75000000000017Q135.32779074701168,75.32779074701212 194.74999999999972,54.041398465531444"></path>
		<path class="link" generation="1" stroke-width="1" style="fill:none; opacity:0.8; visibility: visible; stroke: url('#pxny');" d="M495.9586015344688,355.24999999999983Q484.6537769825439,293.13808445967356 525.5,244.99999999999994"></path>
		<path class="link" generation="1" stroke-width="2" style="fill:none; opacity:0.8; visibility: visible; stroke: url('#nxny');" d="M495.9586015344688,355.24999999999983Q224.2741373109955,384.82129566218475 114.04139846553116,134.75000000000017"></path>
		<path class="link" generation="1" stroke-width="1.4142135623730951" style="fill:none; opacity:0.8; visibility: visible; stroke: url('#pxpy');" d="M114.04139846553116,134.75000000000017Q167.8833119296537,245.00000000000003 114.04139846553124,355.24999999999994"></path>
		<path class="link" generation="1" stroke-width="15.459624833740307" style="fill:none; opacity:0.8; visibility: visible; stroke: url('#down');" d="M114.04139846553116,134.75000000000017QNaN,NaN 114.04139846553116,134.75000000000017"></path>
		<path class="link" generation="1" stroke-width="2.23606797749979" style="fill:none; opacity:0.8; visibility: visible; stroke: url('#pxny');" d="M84.5,245.00000000000009Q73.19517544807508,182.8880844596738 114.04139846553116,134.75000000000017"></path>
		</g><g><circle class="node gen-0" nodeid="0" r="0" fill="#15537d" cx="304.99999999999994" cy="24.5"><title>Myriel</title></circle><circle class="node gen-0" nodeid="1" r="0" fill="#15537d" cx="415.25" cy="54.0413984655313"><title>Napoleon</title></circle><circle class="node gen-0" nodeid="2" r="0" fill="#15537d" cx="304.99999999999994" cy="24.5"><title>MlleBaptistine</title></circle><circle class="node gen-0" nodeid="3" r="0" fill="#15537d" cx="304.99999999999994" cy="24.5"><title>MmeMagloire</title></circle><circle class="node gen-0" nodeid="4" r="0" fill="#15537d" cx="304.99999999999994" cy="24.5"><title>CountessDeLo</title></circle><circle class="node gen-0" nodeid="5" r="0" fill="#15537d" cx="415.25" cy="54.0413984655313"><title>Geborand</title></circle><circle class="node gen-0" nodeid="6" r="0" fill="#15537d" cx="415.25" cy="54.0413984655313"><title>Champtercier</title></circle><circle class="node gen-0" nodeid="7" r="0" fill="#15537d" cx="415.25" cy="54.0413984655313"><title>Cravatte</title></circle><circle class="node gen-0" nodeid="8" r="0" fill="#15537d" cx="415.25" cy="54.0413984655313"><title>Count</title></circle><circle class="node gen-0" nodeid="9" r="0" fill="#15537d" cx="415.25" cy="54.0413984655313"><title>OldMan</title></circle><circle class="node gen-0" nodeid="10" r="0" fill="#b25809" cx="495.9586015344688" cy="355.24999999999983"><title>Labarre</title></circle><circle class="node gen-0" nodeid="11" r="0" fill="#b25809" cx="495.9586015344688" cy="355.24999999999983"><title>Valjean</title></circle><circle class="node gen-0" nodeid="12" r="0" fill="#1e701e" cx="495.9586015344687" cy="134.7499999999999"><title>Marguerite</title></circle><circle class="node gen-0" nodeid="13" r="0" fill="#b25809" cx="415.2500000000001" cy="435.9586015344687"><title>MmeDeR</title></circle><circle class="node gen-0" nodeid="14" r="0" fill="#b25809" cx="415.2500000000001" cy="435.9586015344687"><title>Isabeau</title></circle><circle class="node gen-0" nodeid="15" r="0" fill="#b25809" cx="495.9586015344688" cy="355.24999999999983"><title>Gervais</title></circle><circle class="node gen-0" nodeid="16" r="0" fill="#1e701e" cx="525.5" cy="244.99999999999994"><title>Tholomyes</title></circle><circle class="node gen-0" nodeid="17" r="0" fill="#1e701e" cx="525.5" cy="244.99999999999994"><title>Listolier</title></circle><circle class="node gen-0" nodeid="18" r="0" fill="#1e701e" cx="525.5" cy="244.99999999999994"><title>Fameuil</title></circle><circle class="node gen-0" nodeid="19" r="0" fill="#1e701e" cx="525.5" cy="244.99999999999994"><title>Blacheville</title></circle><circle class="node gen-0" nodeid="20" r="0" fill="#1e701e" cx="525.5" cy="244.99999999999994"><title>Favourite</title></circle><circle class="node gen-0" nodeid="21" r="0" fill="#1e701e" cx="495.9586015344687" cy="134.7499999999999"><title>Dahlia</title></circle><circle class="node gen-0" nodeid="22" r="0" fill="#1e701e" cx="495.9586015344687" cy="134.7499999999999"><title>Zephine</title></circle><circle class="node gen-0" nodeid="23" r="0" fill="#1e701e" cx="495.9586015344687" cy="134.7499999999999"><title>Fantine</title></circle><circle class="node gen-0" nodeid="24" r="0" fill="#951b1c" cx="114.04139846553124" cy="355.24999999999994"><title>MmeThenardier</title></circle><circle class="node gen-0" nodeid="25" r="0" fill="#951b1c" cx="84.5" cy="245.00000000000009"><title>Thenardier</title></circle><circle class="node gen-0" nodeid="26" r="0" fill="#b25809" cx="415.2500000000001" cy="435.9586015344687"><title>Cosette</title></circle><circle class="node gen-0" nodeid="27" r="0" fill="#b25809" cx="495.9586015344688" cy="355.24999999999983"><title>Javert</title></circle><circle class="node gen-0" nodeid="28" r="0" fill="#b25809" cx="495.9586015344688" cy="355.24999999999983"><title>Fauchelevent</title></circle><circle class="node gen-0" nodeid="29" r="0" fill="#674884" cx="305.00000000000006" cy="465.5"><title>Bamatabois</title></circle><circle class="node gen-0" nodeid="30" r="0" fill="#b25809" cx="495.9586015344688" cy="355.24999999999983"><title>Perpetue</title></circle><circle class="node gen-0" nodeid="31" r="0" fill="#b25809" cx="495.9586015344688" cy="355.24999999999983"><title>Simplice</title></circle><circle class="node gen-0" nodeid="32" r="0" fill="#b25809" cx="495.9586015344688" cy="355.24999999999983"><title>Scaufflaire</title></circle><circle class="node gen-0" nodeid="33" r="0" fill="#b25809" cx="415.2500000000001" cy="435.9586015344687"><title>Woman1</title></circle><circle class="node gen-0" nodeid="34" r="0" fill="#674884" cx="194.75000000000017" cy="435.9586015344688"><title>Judge</title></circle><circle class="node gen-0" nodeid="35" r="0" fill="#674884" cx="194.75000000000017" cy="435.9586015344688"><title>Champmathieu</title></circle><circle class="node gen-0" nodeid="36" r="0" fill="#674884" cx="194.75000000000017" cy="435.9586015344688"><title>Brevet</title></circle><circle class="node gen-0" nodeid="37" r="0" fill="#674884" cx="194.75000000000017" cy="435.9586015344688"><title>Chenildieu</title></circle><circle class="node gen-0" nodeid="38" r="0" fill="#674884" cx="194.75000000000017" cy="435.9586015344688"><title>Cochepaille</title></circle><circle class="node gen-0" nodeid="39" r="0" fill="#b25809" cx="495.9586015344688" cy="355.24999999999983"><title>Pontmercy</title></circle><circle class="node gen-0" nodeid="40" r="0" fill="#951b1c" cx="84.5" cy="245.00000000000009"><title>Boulatruelle</title></circle><circle class="node gen-0" nodeid="41" r="0" fill="#951b1c" cx="114.04139846553124" cy="355.24999999999994"><title>Eponine</title></circle><circle class="node gen-0" nodeid="42" r="0" fill="#951b1c" cx="114.04139846553124" cy="355.24999999999994"><title>Anzelma</title></circle><circle class="node gen-0" nodeid="43" r="0" fill="#b25809" cx="415.2500000000001" cy="435.9586015344687"><title>Woman2</title></circle><circle class="node gen-0" nodeid="44" r="0" fill="#b25809" cx="415.2500000000001" cy="435.9586015344687"><title>MotherInnocent</title></circle><circle class="node gen-0" nodeid="45" r="0" fill="#b25809" cx="495.9586015344688" cy="355.24999999999983"><title>Gribier</title></circle><circle class="node gen-0" nodeid="46" r="0" fill="#623c34" cx="114.04139846553116" cy="134.75000000000017"><title>Jondrette</title></circle><circle class="node gen-0" nodeid="47" r="0" fill="#623c34" cx="194.74999999999972" cy="54.041398465531444"><title>MmeBurgon</title></circle><circle class="node gen-0" nodeid="48" r="0" fill="#623c34" cx="114.04139846553116" cy="134.75000000000017"><title>Gavroche</title></circle><circle class="node gen-0" nodeid="49" r="0" fill="#b25809" cx="495.9586015344688" cy="355.24999999999983"><title>Gillenormand</title></circle><circle class="node gen-0" nodeid="50" r="0" fill="#b25809" cx="495.9586015344688" cy="355.24999999999983"><title>Magnon</title></circle><circle class="node gen-0" nodeid="51" r="0" fill="#b25809" cx="415.2500000000001" cy="435.9586015344687"><title>MlleGillenormand</title></circle><circle class="node gen-0" nodeid="52" r="0" fill="#b25809" cx="415.2500000000001" cy="435.9586015344687"><title>MmePontmercy</title></circle><circle class="node gen-0" nodeid="53" r="0" fill="#b25809" cx="415.2500000000001" cy="435.9586015344687"><title>MlleVaubois</title></circle><circle class="node gen-0" nodeid="54" r="0" fill="#b25809" cx="495.9586015344688" cy="355.24999999999983"><title>LtGillenormand</title></circle><circle class="node gen-0" nodeid="55" r="0" fill="#b25809" cx="495.9586015344688" cy="355.24999999999983"><title>Marius</title></circle><circle class="node gen-0" nodeid="56" r="0" fill="#b25809" cx="415.2500000000001" cy="435.9586015344687"><title>BaronessT</title></circle><circle class="node gen-0" nodeid="57" r="0" fill="#623c34" cx="114.04139846553116" cy="134.75000000000017"><title>Mabeuf</title></circle><circle class="node gen-0" nodeid="58" r="0" fill="#623c34" cx="114.04139846553116" cy="134.75000000000017"><title>Enjolras</title></circle><circle class="node gen-0" nodeid="59" r="0" fill="#623c34" cx="114.04139846553116" cy="134.75000000000017"><title>Combeferre</title></circle><circle class="node gen-0" nodeid="60" r="0" fill="#623c34" cx="114.04139846553116" cy="134.75000000000017"><title>Prouvaire</title></circle><circle class="node gen-0" nodeid="61" r="0" fill="#623c34" cx="114.04139846553116" cy="134.75000000000017"><title>Feuilly</title></circle><circle class="node gen-0" nodeid="62" r="0" fill="#623c34" cx="114.04139846553116" cy="134.75000000000017"><title>Courfeyrac</title></circle><circle class="node gen-0" nodeid="63" r="0" fill="#623c34" cx="114.04139846553116" cy="134.75000000000017"><title>Bahorel</title></circle><circle class="node gen-0" nodeid="64" r="0" fill="#623c34" cx="114.04139846553116" cy="134.75000000000017"><title>Bossuet</title></circle><circle class="node gen-0" nodeid="65" r="0" fill="#623c34" cx="114.04139846553116" cy="134.75000000000017"><title>Joly</title></circle><circle class="node gen-0" nodeid="66" r="0" fill="#623c34" cx="114.04139846553116" cy="134.75000000000017"><title>Grantaire</title></circle><circle class="node gen-0" nodeid="67" r="0" fill="#623c34" cx="194.74999999999972" cy="54.041398465531444"><title>MotherPlutarch</title></circle><circle class="node gen-0" nodeid="68" r="0" fill="#951b1c" cx="84.5" cy="245.00000000000009"><title>Gueulemer</title></circle><circle class="node gen-0" nodeid="69" r="0" fill="#951b1c" cx="84.5" cy="245.00000000000009"><title>Babet</title></circle><circle class="node gen-0" nodeid="70" r="0" fill="#951b1c" cx="84.5" cy="245.00000000000009"><title>Claquesous</title></circle><circle class="node gen-0" nodeid="71" r="0" fill="#951b1c" cx="84.5" cy="245.00000000000009"><title>Montparnasse</title></circle><circle class="node gen-0" nodeid="72" r="0" fill="#b25809" cx="495.9586015344688" cy="355.24999999999983"><title>Toussaint</title></circle><circle class="node gen-0" nodeid="73" r="0" fill="#623c34" cx="114.04139846553116" cy="134.75000000000017"><title>Child1</title></circle><circle class="node gen-0" nodeid="74" r="0" fill="#623c34" cx="114.04139846553116" cy="134.75000000000017"><title>Child2</title></circle><circle class="node gen-0" nodeid="75" r="0" fill="#951b1c" cx="84.5" cy="245.00000000000009"><title>Brujon</title></circle><circle class="node gen-0" nodeid="76" r="0" fill="#623c34" cx="194.74999999999972" cy="54.041398465531444"><title>MmeHucheloup</title></circle><circle class="node aggregate gen-1 active" nodeid="agg1i0" r="12" fill="#15537d" cx="304.99999999999994" cy="24.5"><title></title></circle><circle class="node aggregate gen-1 active" nodeid="agg1i1" r="18" fill="#15537d" cx="415.25" cy="54.0413984655313"><title></title></circle><circle class="node aggregate gen-1 active" nodeid="agg1i2" r="45" fill="#b25809" cx="495.9586015344688" cy="355.24999999999983"><title></title></circle><circle class="node aggregate gen-1 active" nodeid="agg1i3" r="12" fill="#1e701e" cx="495.9586015344687" cy="134.7499999999999"><title></title></circle><circle class="node aggregate gen-1 active" nodeid="agg1i4" r="30" fill="#b25809" cx="415.2500000000001" cy="435.9586015344687"><title></title></circle><circle class="node aggregate gen-1 active" nodeid="agg1i5" r="15" fill="#1e701e" cx="525.5" cy="244.99999999999994"><title></title></circle><circle class="node aggregate gen-1 active" nodeid="agg1i6" r="9" fill="#951b1c" cx="114.04139846553124" cy="355.24999999999994"><title></title></circle><circle class="node aggregate gen-1 active" nodeid="agg1i7" r="21" fill="#951b1c" cx="84.5" cy="245.00000000000009"><title></title></circle><circle class="node aggregate gen-1 active" nodeid="agg1i8" r="3" fill="#674884" cx="305.00000000000006" cy="465.5"><title></title></circle><circle class="node aggregate gen-1 active" nodeid="agg1i9" r="15" fill="#674884" cx="194.75000000000017" cy="435.9586015344688"><title></title></circle><circle class="node aggregate gen-1 active" nodeid="agg1i10" r="42" fill="#623c34" cx="114.04139846553116" cy="134.75000000000017"><title></title></circle><circle class="node aggregate gen-1 active" nodeid="agg1i11" r="9" fill="#623c34" cx="194.74999999999972" cy="54.041398465531444"><title></title></circle></g></g><g class="x axis" transform="translate(50,560)"></g><g class="y axis" transform="translate(30,50)"></g>
</svg>